<svg width="42" height="42" viewBox="0 0 42 42" fill="none" xmlns="http://www.w3.org/2000/svg">
<g clip-path="url(#clip0_21_103)">
<path d="M21 42C32.598 42 42 32.598 42 21C42 9.40202 32.598 0 21 0C9.40205 0 3.05176e-05 9.40202 3.05176e-05 21C3.05176e-05 32.598 9.40205 42 21 42Z" fill="white"/>
<path d="M27.8283 6.4458H23.1763C20.4156 6.4458 17.345 7.6069 17.345 11.6086C17.3585 13.0029 17.345 14.3383 17.345 15.8412H14.1513V20.9233H17.4438V35.5539H23.494V20.8268H27.4874L27.8487 15.8269H23.3898C23.3898 15.8269 23.3998 13.6028 23.3898 12.9569C23.3898 11.3755 25.0353 11.466 25.1343 11.466C25.9173 11.466 27.4398 11.4683 27.8306 11.466V6.4458H27.8283Z" fill="#EE122C"/>
</g>
<defs>
<clipPath id="clip0_21_103">
<rect width="42" height="42" fill="white"/>
</clipPath>
</defs>
</svg>
