<svg width="43" height="42" viewBox="0 0 43 42" fill="none" xmlns="http://www.w3.org/2000/svg">
<path d="M21.5 0C9.62578 0 0 9.40195 0 21C0 32.5981 9.62578 42 21.5 42C33.3741 42 43 32.5981 43 21C42.9999 9.40195 33.374 0 21.5 0ZM15.7637 31.1525H11.0432V16.2565H15.7637V31.1525ZM13.381 14.3057C11.8393 14.3057 10.5895 13.075 10.5895 11.5571C10.5895 10.0391 11.8395 8.80849 13.381 8.80849C14.9225 8.80849 16.1723 10.0391 16.1723 11.5571C16.1724 13.0751 14.9226 14.3057 13.381 14.3057ZM33.4539 31.1525H28.7563V23.3333C28.7563 21.1888 27.9223 19.9916 26.1861 19.9916C24.2966 19.9916 23.3095 21.2384 23.3095 23.3333V31.1525H18.782V16.2565H23.3095V18.2627C23.3095 18.2627 24.6714 15.8021 27.9052 15.8021C31.139 15.8021 33.454 17.7308 33.454 21.7206L33.4539 31.1525Z" fill="url(#paint0_linear_21_99)"/>
<defs>
<linearGradient id="paint0_linear_21_99" x1="6.29718" y1="6.15075" x2="35.9875" y2="36.5479" gradientUnits="userSpaceOnUse">
<stop offset="1" stop-color="white"/>
</linearGradient>
</defs>
</svg>
