<svg width="42" height="42" viewBox="0 0 42 42" fill="none" xmlns="http://www.w3.org/2000/svg">
<g clip-path="url(#clip0_21_114)">
<path d="M35.8795 6.10346C31.9312 2.16988 26.6813 0.00239997 21.0878 0C9.56149 0 0.181424 9.33581 0.17681 20.8109C0.175467 24.4789 1.13811 28.0594 2.96784 31.2156L0.00125122 42L11.0864 39.1061C14.1405 40.7644 17.5793 41.6383 21.0788 41.6397H21.0877H21.0878C32.6122 41.6397 41.9936 32.3022 41.9985 20.8277C42.0005 15.2664 39.8272 10.0373 35.8795 6.10346V6.10346ZM21.0878 38.1246H21.081C17.9618 38.123 14.9029 37.2892 12.2349 35.7131L11.6 35.3383L5.02182 37.0554L6.7781 30.6723L6.36441 30.0179C4.62449 27.2636 3.70596 24.0806 3.70727 20.8122C3.71109 11.2745 11.5074 3.51517 21.0943 3.51517C25.7368 3.51709 30.1002 5.31871 33.3819 8.58819C36.6633 11.8576 38.4691 16.2039 38.4678 20.8262C38.4637 30.3642 30.6671 38.1246 21.0878 38.1246V38.1246Z" fill="#E0E0E0"/>
<path d="M0.961273 40.8035L3.79236 30.5117C2.04576 27.4997 1.12726 24.0824 1.12836 20.5826C1.13294 9.632 10.0846 0.7229 21.0834 0.7229C26.4217 0.7253 31.4319 2.79366 35.199 6.54766C38.9668 10.3016 41.0406 15.2915 41.0384 20.5982C41.0338 31.5491 32.0816 40.459 21.0842 40.459C21.0847 40.459 21.0834 40.459 21.0842 40.459H21.0753C17.7357 40.4579 14.4543 39.6233 11.5398 38.0419L0.961273 40.8035Z" fill="url(#paint0_linear_21_114)"/>
<path fill-rule="evenodd" clip-rule="evenodd" d="M15.9206 11.9757C15.5337 11.1194 15.1264 11.1023 14.7583 11.0873C14.4573 11.0744 14.1126 11.0752 13.7685 11.0752C13.4242 11.0752 12.8646 11.204 12.3913 11.7186C11.9178 12.2332 10.5834 13.4771 10.5834 16.0069C10.5834 18.5371 12.4344 20.9818 12.6924 21.3252C12.9507 21.668 16.2655 27.0256 21.5152 29.0868C25.8782 30.7997 26.766 30.459 27.713 30.3733C28.66 30.2875 30.7687 29.1296 31.1992 27.9288C31.6297 26.7283 31.6297 25.6992 31.5005 25.4841C31.3714 25.2698 31.027 25.1413 30.5105 24.8841C29.9939 24.627 27.4547 23.3828 26.9812 23.2114C26.5077 23.0399 26.1634 22.9542 25.819 23.4691C25.4746 23.9833 24.4854 25.1413 24.184 25.4841C23.8827 25.8277 23.5814 25.8706 23.0648 25.6135C22.5483 25.3555 20.8848 24.8131 18.9115 23.0613C17.3761 21.6985 16.3394 20.0153 16.0381 19.5005C15.7368 18.9862 16.0058 18.7077 16.2649 18.4513C16.4968 18.2209 16.7815 17.851 17.0398 17.5508C17.2975 17.2505 17.3836 17.0362 17.5558 16.6934C17.7279 16.35 17.6418 16.0497 17.5127 15.7926C17.3836 15.5354 16.3798 12.9925 15.9206 11.9757V11.9757Z" fill="#EE122C"/>
<path d="M35.7088 6.03733C31.8059 2.1489 26.6162 0.0063405 21.0869 0.00390625C9.69292 0.00390625 0.420539 9.23254 0.415959 20.5759C0.414616 24.2018 1.36621 27.7412 3.17493 30.8612L0.242432 41.5218L11.2003 38.6611C14.2195 40.3003 17.6188 41.1642 21.078 41.1655H21.0868H21.0869C32.479 41.1655 41.7527 31.9353 41.7576 20.5925C41.7595 15.095 39.6112 9.92603 35.7088 6.03733V6.03733ZM21.0869 37.6909H21.0802C17.9968 37.6893 14.973 36.8651 12.3357 35.307L11.708 34.9366L5.20536 36.634L6.94145 30.3242L6.53252 29.6773C4.81257 26.9546 3.90458 23.8081 3.90592 20.5772C3.90967 11.1491 11.6165 3.47879 21.0934 3.47879C25.6826 3.48067 29.9959 5.26162 33.2399 8.49356C36.4837 11.7255 38.2687 16.0218 38.2674 20.5912C38.2633 30.0196 30.5562 37.6909 21.0869 37.6909Z" fill="white"/>
</g>
<defs>
<linearGradient id="paint0_linear_21_114" x1="20.9999" y1="40.8035" x2="20.9999" y2="0.722967" gradientUnits="userSpaceOnUse">
<stop stop-color="white"/>
</linearGradient>
<clipPath id="clip0_21_114">
<rect width="42" height="42" fill="white"/>
</clipPath>
</defs>
</svg>
