<svg width="34" height="34" viewBox="0 0 34 34" fill="none" xmlns="http://www.w3.org/2000/svg">
<path opacity="0.7" fill-rule="evenodd" clip-rule="evenodd" d="M26.1512 6.44284C26.2181 6.57097 26.3353 6.6625 26.4859 6.6625C30.5016 6.6625 33.781 10.2502 33.781 14.6432V25.5161C33.781 29.9091 30.5016 33.4968 26.4859 33.4968H7.61208C3.57965 33.4968 0.316895 29.9091 0.316895 25.5161V14.6432C0.316895 10.2502 3.57965 6.6625 7.61208 6.6625C7.74594 6.6625 7.87979 6.58928 7.92999 6.44284L8.03038 6.22319C8.08807 6.0902 8.14729 5.9536 8.2074 5.81493C8.63544 4.82752 9.10898 3.73515 9.40241 3.09313C10.1721 1.44573 11.4772 0.530511 13.1002 0.512207H20.981C22.604 0.530511 23.9259 1.44573 24.6955 3.09313C24.9591 3.66976 25.3606 4.59863 25.7476 5.49387C25.8274 5.67852 25.9067 5.86174 25.9839 6.04014L26.1512 6.44284ZM24.9298 13.472C24.9298 14.3872 25.5991 15.1194 26.4357 15.1194C27.2723 15.1194 27.9583 14.3872 27.9583 13.472C27.9583 12.5568 27.2723 11.8063 26.4357 11.8063C25.5991 11.8063 24.9298 12.5568 24.9298 13.472ZM14.1539 16.3089C14.9403 15.4486 15.961 14.991 17.0486 14.991C18.1362 14.991 19.1569 15.4486 19.9265 16.2906C20.6962 17.1326 21.1145 18.2492 21.1145 19.439C21.0978 21.8918 19.2907 23.8869 17.0486 23.8869C15.961 23.8869 14.9403 23.4293 14.1707 22.5873C13.401 21.7453 12.9827 20.6287 12.9827 19.439V19.4207C12.966 18.2675 13.3843 17.1509 14.1539 16.3089ZM21.6836 24.5273C20.4957 25.8269 18.8559 26.6323 17.0489 26.6323C15.292 26.6323 13.6522 25.8818 12.3973 24.5273C11.1592 23.1545 10.4731 21.3606 10.4731 19.4387C10.4564 17.535 11.1424 15.7412 12.3806 14.3683C13.6355 12.9955 15.292 12.245 17.0489 12.245C18.8057 12.245 20.4622 12.9955 21.7004 14.35C22.9385 15.7229 23.6246 17.535 23.6246 19.4387C23.6078 21.4338 22.8716 23.2277 21.6836 24.5273Z" fill="white"/>
</svg>
